inDegrees=no
num_controls=7
num_derivatives=13
num_iterations=135
num_multipliers=7
num_parameters=0
num_slacks=7
num_states=26
objective=0.543638
objective_accelerations=0.060771
objective_balance=0.003273
objective_effort=0.047282
objective_height=0.422546
objective_ligament=0.009767
solver_duration=1459.096009
status=Solve_Succeeded
success=true
DataType=double
version=3
OpenSimVersion=4.5
endheader
time	/jointset/ground_pelvis/pelvis_tilt/value	/jointset/ground_pelvis/pelvis_tx/value	/jointset/ground_pelvis/pelvis_ty/value	/jointset/hip_r/hip_flexion_r/value	/jointset/hip_r/hip_adduction_r/value	/jointset/hip_r/hip_rotation_r/value	/jointset/back/lumbar_extension/value	/jointset/patellofemoral_r/patellar_flexion_r/value	/jointset/knee_r/knee_flexion_r/value	/jointset/knee_r/knee_adduction_r/value	/jointset/knee_r/knee_rotation_r/value	/jointset/ankle_r/ankle_angle_r/value	/jointset/subtalar_r/subtalar_angle_r/value	/jointset/ground_pelvis/pelvis_tilt/speed	/jointset/ground_pelvis/pelvis_tx/speed	/jointset/ground_pelvis/pelvis_ty/speed	/jointset/hip_r/hip_flexion_r/speed	/jointset/hip_r/hip_adduction_r/speed	/jointset/hip_r/hip_rotation_r/speed	/jointset/back/lumbar_extension/speed	/jointset/patellofemoral_r/patellar_flexion_r/speed	/jointset/knee_r/knee_flexion_r/speed	/jointset/knee_r/knee_adduction_r/speed	/jointset/knee_r/knee_rotation_r/speed	/jointset/ankle_r/ankle_angle_r/speed	/jointset/subtalar_r/subtalar_angle_r/speed	/forceset/tau_hip_flexion_r	/forceset/tau_hip_adduction_r	/forceset/tau_hip_rotation_r	/forceset/tau_knee_flexion_r	/forceset/tau_ankle_angle_r	/forceset/tau_subtalar_angle_r	/forceset/tau_lumbar_extension	lambda_cid13_p0	lambda_cid14_p0	lambda_cid14_p1	lambda_cid14_p2	lambda_cid14_p3	lambda_cid14_p4	lambda_cid14_p5	/jointset/ground_pelvis/pelvis_tilt/accel	/jointset/ground_pelvis/pelvis_tx/accel	/jointset/ground_pelvis/pelvis_ty/accel	/jointset/hip_r/hip_flexion_r/accel	/jointset/hip_r/hip_adduction_r/accel	/jointset/hip_r/hip_rotation_r/accel	/jointset/back/lumbar_extension/accel	/jointset/patellofemoral_r/patellar_flexion_r/accel	/jointset/knee_r/knee_flexion_r/accel	/jointset/knee_r/knee_adduction_r/accel	/jointset/knee_r/knee_rotation_r/accel	/jointset/ankle_r/ankle_angle_r/accel	/jointset/subtalar_r/subtalar_angle_r/accel	gamma_cid13_p0	gamma_cid14_p0	gamma_cid14_p1	gamma_cid14_p2	gamma_cid14_p3	gamma_cid14_p4	gamma_cid14_p5
1	-0.3329892403720909	-0.01593698643489295	0.6170221343838528	1.603435770890255	-0.2449045731906817	0.0688166687604682	-0.4363301682361959	1.506677064840121	1.50667706484014	0.02941035154875663	0.1745291864561281	0.4363286176664626	0.08586999189933141	-0.002025526387090292	0.00259043010392423	0.01662555690589928	-0.04178409115919787	-0.0009269114632220446	-0.01480118557142214	-6.943451987180156e-05	-0.0487034146458915	-0.04870341464589189	-0.0009700343831590926	9.518907277839086e-06	-0.006925421190154207	-0.003731465184738275	-0.3128869511697543	0.008016221607437384	0.01776985783600611	-0.5302701197735427	0.008624172821670131	-0.0008524971529268544	0.3206090918335058	-0.04268529323358424	-48.05921652500796	-9.525411092362258	2.824238141784731	21.17228413400414	-819.9184999811556	62.37504836375035	1.280573802513441	0.004334618142425346	2.065676553608161	-6.069352373720235	-0.1133944377658938	-1.485206453062205	-0.009299591062976578	-5.836604298963013	-5.83660429896327	0.1926780093717728	0.01249174182408134	-1.32305624155325	-0.6347842034370592	8.420497491055921e-10	8.010986816916794e-10	1.369566454848989e-08	9.252845786576405e-09	-2.858722046451188e-09	-2.285093963784504e-09	1.722111802105743e-08
1.01	-0.3329460258681459	-0.01591090929146884	0.6172914598127074	1.602715482361895	-0.2449192898873709	0.06859527602075904	-0.4363307472195179	1.505898553246616	1.505898553246643	0.02941076178713924	0.1745293530838766	0.436193157531788	0.08580128535231069	0.01067198192154521	0.002623266984265851	0.03722966431690691	-0.1022500744216438	-0.002012203040649029	-0.02947037180908803	-5.621276663469938e-05	-0.1069862835512853	-0.1069862835512783	0.001050535787001884	2.261190278132722e-05	-0.02018023886700599	-0.0100059830801629	-0.3126499231691724	0.008056989587416259	0.01778005203739094	-0.5297507677991331	0.008461483508252564	-0.0008267885212203433	0.3203791864513306	-0.04270141786795188	-48.083609905987	-9.512210366342046	2.814929948144102	21.22004352993103	-819.4652612692097	62.33691634585853	1.264872476892567	0.002496507699281956	2.056297327496956	-6.031690371645112	-0.1054597631456117	-1.456726981561586	0.005155465213692327	-5.822235401623909	-5.822235401622695	0.2065166210361072	-0.004455299090719071	-1.328740279043553	-0.6231993066688061	1.448313742490335e-09	3.02203082451334e-09	3.116583679378821e-08	1.846215534979935e-08	-9.809061718961652e-09	-4.107313750575679e-09	3.88264034679802e-08
1.02	-0.3327757296547439	-0.01588455612229741	0.6177665302142021	1.601391240187083	-0.2449447321489166	0.06822740096418271	-0.4363314895039612	1.504537591520997	1.504537591521032	0.0294313317472615	0.174529615966083	0.435924740070685	0.08566995088152111	0.02339081550433934	0.002645635253387599	0.05777455143390533	-0.1625748204496231	-0.003072024434656593	-0.04409764894446636	-0.0001020947455324429	-0.1651934410685333	-0.1651934410685199	0.003061909965076648	2.876979811693594e-05	-0.03351688647555378	-0.01625704993853326	-0.3124128951685838	0.008097757567395156	0.01779024623879114	-0.5292314158247238	0.008298794194833582	-0.0008010798895146314	0.3201492810691618	-0.04272552471577314	-48.11700080562184	-9.498390325579518	2.803016156922054	21.30033777109245	-819.1488463034173	62.29917734180209	1.284838857345139	0.002240895898475017	2.053832494806324	-6.041104926826946	-0.1083004010820109	-1.476824632604692	-0.02112033748990423	-5.821462021333855	-5.821462021334295	0.19083881095453	0.01110472179050319	-1.339422227892405	-0.6300939960261891	2.138581494482799e-09	3.31636641975005e-09	4.65997493967628e-08	2.880269041154684e-08	-1.203422085073626e-08	-5.969884762608639e-09	5.695182460922073e-08
1.03	-0.3324783274349905	-0.01585791142994944	0.6184466404127871	1.599464751078869	-0.2449806204841792	0.06771354622584973	-0.4363322038068617	1.502595156879539	1.502595156879577	0.02947195750606105	0.1745299017797302	0.4355226835406531	0.08547633381559459	0.03607331852150226	0.002693552648577451	0.07822625403373824	-0.2226691992229358	-0.004098768750649445	-0.05865824352084344	2.872482863730917e-05	-0.2232588909898103	-0.2232588909898202	0.005060044329402392	2.642245132517421e-05	-0.0468942408441575	-0.02245111676865295	-0.3123096754671714	0.008118314251274857	0.01782123544211223	-0.5282588684942873	0.008211673810571387	-0.0007551569320248058	0.3201453906081109	-0.04275030291681744	-48.10238582018162	-9.458915678601926	2.777337465657197	21.18350475467766	-818.6074802630085	62.24723869204011	1.257509550377277	0.007601720827060171	2.037652427317055	-5.985534084909645	-0.09882362576800864	-1.443420386607188	0.04060670460779991	-5.793897612641575	-5.793897612644791	0.2038254039368556	-0.006188005498933855	-1.336867289165938	-0.6117615315555657	2.829706427685546e-09	3.591042866542003e-09	6.201288384012183e-08	3.915476859062622e-08	-1.421116385454414e-08	-7.832867521837946e-09	7.504173693101551e-08
1.04	-0.3320545894797698	-0.01583048065174997	0.6193306302943193	1.596938932236459	-0.2450265686983826	0.06705453683845992	-0.4363295251940725	1.500073105511844	1.500073105511883	0.02953246953945686	0.174530107411396	0.4349868584173706	0.08522123638035693	0.04865796259768133	0.002802852423687948	0.09855048802337651	-0.2824407672892971	-0.005084000223046403	-0.0731285787553394	0.0005764883923018026	-0.2811167863157654	-0.2811167863157971	0.007039164884338165	1.273340113704342e-05	-0.06027060512562418	-0.02855312380080105	-0.3122064557657444	0.008138870935155694	0.01785222464544515	-0.5272863211638508	0.008124553426307135	-0.0007092339745340667	0.3201415001470744	-0.04278311641819438	-48.09685554704113	-9.418886869511971	2.749120542241278	21.09930897073351	-818.2037509518173	62.19632223352793	1.26526706914834	0.01451737188262849	2.028338772767399	-5.976542785436665	-0.0999978323628372	-1.458772764228474	0.06226846040913746	-5.779951102269465	-5.779951102269609	0.1870360490765375	0.008836381111237239	-1.339224210464954	-0.6116820364318633	3.646488563491777e-09	1.812568060792759e-09	7.787697530529426e-08	4.820240012447062e-08	-1.184691675790803e-08	-1.174970467190911e-08	9.333189532339238e-08
1.05	-0.3315056671195092	-0.01580149529811815	0.6204172295225568	1.593816966569842	-0.2450821505575611	0.06625130084581185	-0.4363183226568195	1.496973418798127	1.496973418798158	0.02961270729944888	0.174530117757255	0.4343174065571349	0.08490566429597482	0.06109151903933459	0.003020008746305509	0.1187484759056302	-0.3419020252699083	-0.006024865776488992	-0.08749946685068928	0.001831723976776842	-0.3387956897213031	-0.3387956897212994	0.009010705616882735	-1.195795236541385e-05	-0.07360657291063631	-0.03453854893781865	-0.31258562626803	0.008188402390435832	0.01790719037761026	-0.5260924209667583	0.008056794032553242	-0.0006533943040834314	0.320711528658309	-0.04281762467581338	-48.09006947325841	-9.370056332782065	2.714617257831185	20.81115157362251	-818.0680541929405	62.13112302513883	1.227151799355635	0.02918148622797261	2.012393351833055	-5.923366006986515	-0.08999487190602908	-1.423376977796248	0.1823068448583816	-5.758130855477383	-5.758130855472022	0.2025677030012318	-0.008298265687830162	-1.328807957782402	-0.5885392675510439	4.467197486879366e-09	-3.006772159838659e-11	9.375515917739836e-08	5.720926770065145e-08	-9.340757470633069e-09	-1.573072477169408e-08	1.11628311405475e-07
1.06	-0.3308334588212948	-0.01576956503650481	0.6217051815407927	1.590101898582898	-0.2451469138632869	0.0653049299430849	-0.4362895366162275	1.493297688871199	1.493297688871222	0.02971273139029938	0.1745298459151587	0.4335149900399965	0.08453092465717989	0.07331515018825989	0.003391834019994839	0.1388210460230245	-0.4010612313550466	-0.006920289532774196	-0.1017555607703592	0.004093189056917377	-0.3963254289580997	-0.3963254289580612	0.01099643105573956	-4.370419014107973e-05	-0.08686353650617053	-0.04038663468340999	-0.3129647967703063	0.00823793384571477	0.01796215610978347	-0.5248985207696661	0.007989034638797408	-0.0005975546336355661	0.3212815571695528	-0.04286031220125042	-48.09253985442645	-9.320803855932596	2.677713500312064	20.55466982195077	-818.0728408837861	62.06749202691294	1.22328201060272	0.04545116209700677	2.003255219795517	-5.916132406342085	-0.09090947293136879	-1.435813929092485	0.263514359542185	-5.750118268521252	-5.750118268521494	0.1898729903389922	0.007425404256611309	-1.32342337256933	-0.5842141581466103	4.692754770021804e-09	7.343084115104278e-11	1.070969286434219e-07	6.16956659536948e-08	-1.125294138039631e-08	-1.863710026905556e-08	1.252530602311035e-07
1.07	-0.3300400494431283	-0.01573312732968463	0.6231931629626766	1.585796879832326	-0.2452203638278262	0.06421656985404081	-0.4362331430088179	1.489047460411514	1.489047460411539	0.02983261507553122	0.1745291982999338	0.4325803166750037	0.08409844679354188	0.0853307535759474	0.003923149281889428	0.1587472185764003	-0.4598770399444795	-0.007758253838525722	-0.1158909126288366	0.007352777100414249	-0.4536902170709756	-0.453690217070998	0.012982836568274	-9.029762114216741e-05	-0.1000660855443899	-0.0460809596831699	-0.3129947600506774	0.008234758005644206	0.01803870328630807	-0.5234609895669012	0.008143146311519939	-0.0005306046352164187	0.3215845518025919	-0.04291433385755043	-47.99703695927069	-9.240758824914534	2.625834059238983	20.2250446733624	-817.6654175658106	62.02861045334728	1.185304137166008	0.06108528858659752	1.983090968963904	-5.854483175939285	-0.07851064475208878	-1.398568876510734	0.3822677279846868	-5.72515317656792	-5.725153176576889	0.2034133012241626	-0.01135257981801235	-1.31791789872696	-0.5578178248023544	4.886655051023539e-09	2.804471882164726e-10	1.203037824495475e-07	6.594161371082656e-08	-1.340014354532118e-08	-2.148631381947963e-08	1.38629316117559e-07
1.08	-0.3291275631042212	-0.01569055375417532	0.6248795646492652	1.580905667377724	-0.2453018475824924	0.06298762163394989	-0.4361391361807249	1.484224485251922	1.484224485251946	0.02997244060979404	0.1745279545777862	0.431513768373773	0.08360987044912421	0.09713054233620406	0.004619007757824528	0.1785050989639808	-0.5182999721617289	-0.008527047558479096	-0.1298731869787283	0.01161583319315945	-0.5108747689397382	-0.5108747689398199	0.01498480086134769	-0.0001629255737244988	-0.1132385237537579	-0.05160633083939705	-0.3130247233310389	0.008231582165571296	0.01811525046283829	-0.5220234583641364	0.008297257984240122	-0.0004636546368022754	0.3218875464356407	-0.04297668065664369	-47.91096702262139	-9.160526332598415	2.571824056606942	19.925264108871	-817.4016504670044	61.99158307956026	1.180119085116532	0.07835980490513256	1.96959678663645	-5.837557131905394	-0.0770753557717463	-1.405198427375346	0.4642079693918332	-5.714071019698569	-5.714071019698484	0.1929847464468457	0.002218499940378232	-1.317401206799038	-0.5504233894400601	4.959970696749784e-09	3.996480303085716e-10	1.312537371441014e-07	6.923508527050026e-08	-1.503410068821801e-08	-2.392786971250309e-08	1.485879856336319e-07
